<svg width="81" height="28" viewBox="0 0 81 28" fill="none" xmlns="http://www.w3.org/2000/svg">
<g clip-path="url(#clip0_7_9)">
<path d="M10.9862 8.84051C4.54926 13.1872 0.000976562 19.117 0.000976562 19.117L8.48226 24.7448L9.26107 22.8947C11.2626 26.9743 15.6201 28.0697 18.05 27.9923H62.053C64.5179 28.0697 68.8754 26.9743 70.9198 22.8947C70.9938 23.0456 71.6519 24.6326 71.6519 24.6326L80.137 19.0821C80.137 19.0821 75.5148 13.1524 69 8.80954C60.4284 3.06222 50.3233 -0.00552693 39.9838 0.000680789C29.6443 0.00688851 19.543 3.08677 10.9784 8.84438" fill="white"/>
<path d="M27.0998 13.3033L27.8319 11.755H18.4316L17.6606 13.3033H21.321L17.5437 20.8161H19.9736L23.747 13.3033H27.0998Z" fill="#E1242A"/>
<path d="M63.4431 19.4924C63.4431 19.4924 62.9797 19.7169 62.75 19.4924C62.5202 19.2679 62.711 18.8886 62.711 18.8886L64.7126 14.7741H62.6721L62.3645 15.3005C61.169 14.2825 58.9338 14.8089 57.5864 16.2062C56.8668 16.9082 56.3931 17.8214 56.2352 18.8112C55.8971 19.0385 55.5355 19.2292 55.1565 19.3801C55.1565 19.3801 54.6931 19.6046 54.4634 19.3801C54.2336 19.1556 54.4245 18.7763 54.4245 18.7763L57.972 11.6389H55.9276L54.0779 15.2115C52.8824 14.1897 50.6472 14.7199 49.2999 16.1172C49.0265 16.3847 48.7931 16.6897 48.6067 17.0229C48.6067 17.0616 48.5678 17.0616 48.5678 17.0965L48.451 17.3248C47.3334 19.2137 45.986 19.5156 45.986 19.5156C43.0966 20.3439 42.7461 18.9853 42.7461 18.9853C45.986 17.8242 47.2165 16.4191 47.1036 15.3624C46.9907 14.3058 45.4837 14.2284 45.4837 14.2284C43.0187 14.0774 40.8965 15.7766 40.398 17.3984C40.2435 17.8741 40.2035 18.3792 40.2812 18.8731C39.7965 19.1532 39.271 19.3569 38.7236 19.4769C37.9136 19.7401 37.8007 19.3647 37.7228 19.0898C37.6449 18.815 37.2594 16.8255 37.2594 16.8255L40.6901 14.6348H38.5717L35.9899 16.2217C35.4097 16.4501 35.6434 15.8347 35.6434 15.8347L37.7617 11.6467H35.7212L32.2945 18.4435C31.7214 18.7805 31.1284 19.083 30.5188 19.3492C30.5188 19.3492 30.0593 19.5737 29.8256 19.3492C29.592 19.1247 29.7867 18.7454 29.7867 18.7454L31.7921 14.6657H29.7477L29.4518 15.2115C28.2563 14.1897 26.0601 14.7199 24.6738 16.1172C23.2875 17.5145 22.9409 19.3995 23.895 20.2704C24.6738 20.9864 26.0133 20.8355 27.2477 20.042C27.2477 20.042 27.5554 19.7788 27.7111 20.0807C27.8669 20.3826 28.5951 21.0987 30.1761 20.4949C30.6395 20.3091 31.1029 20.0807 31.5663 19.8562L31.1418 20.6845H33.1823L34.1831 18.6834L35.0709 18.1183C35.0709 18.1183 35.3396 17.89 35.4603 18.3428C35.6134 19.0031 35.8192 19.6503 36.0756 20.2781C36.2314 20.5026 36.5779 20.9942 38.0032 20.58C38.891 20.3168 39.775 20.0149 40.6628 19.6743C41.1262 20.3168 42.0491 20.7697 43.5522 20.7697C45.1808 20.7628 46.7581 20.2029 48.0226 19.1827C48.0686 19.5917 48.2446 19.9754 48.5249 20.2781C49.3038 20.9942 50.6433 20.8432 51.8388 20.0498C51.8388 20.0498 52.1464 19.7866 52.3022 20.0885C52.4579 20.3904 53.1861 21.1064 54.7671 20.5026C55.3128 20.301 55.8351 20.0415 56.3248 19.7285C56.4156 19.9521 56.5477 20.1569 56.7142 20.3323C57.493 21.0522 58.8325 20.9013 60.028 20.1078C60.028 20.1078 60.3356 19.8446 60.4914 20.1465C60.6472 20.4484 61.3754 21.1645 62.9564 20.5607C64.5374 19.9569 65.0397 19.353 65.0397 19.353L64.6503 18.6718C64.3032 19.0008 63.8979 19.2633 63.4548 19.4459M28.2329 18.2383C27.5359 19.2176 26.5351 19.6704 25.9977 19.3337C25.4604 18.9969 25.6083 17.8977 26.3054 16.9146C27.0024 15.9314 27.9993 15.4824 28.5406 15.8192C29.0819 16.1559 28.965 17.2939 28.2329 18.2383ZM42.641 17.5571C42.7941 17.0896 43.0449 16.6595 43.3772 16.2953C43.7094 15.9311 44.1154 15.6408 44.5686 15.4437C44.5686 15.4437 44.9891 15.2928 45.2228 15.4824C45.2228 15.4824 45.5304 15.7843 45.1449 16.3107C44.6568 17.0505 43.9589 17.6298 43.1394 17.9751C43.1044 18.0099 42.3334 18.3622 42.641 17.5571ZM52.8551 18.2848C52.162 19.264 51.1612 19.7169 50.62 19.3801C50.0787 19.0434 50.2305 17.9441 50.9315 16.961C51.6324 15.9779 52.6254 15.5289 53.1667 15.8656C53.7079 16.2024 53.5872 17.3403 52.8551 18.2848ZM61.1028 18.3235C60.4096 19.3027 59.4089 19.7556 58.8676 19.415C58.3263 19.0744 58.4782 17.9829 59.1752 16.9997C59.8723 16.0166 60.873 15.5637 61.4104 15.9043C61.9478 16.2449 61.7998 17.3403 61.1028 18.3235Z" fill="#E1242A"/>
<path d="M39.9346 1.63339C15.402 1.63339 2.36075 18.6989 2.36075 18.6989L7.71899 22.2483C8.30902 20.8985 9.0179 19.6033 9.83737 18.3777C9.84395 18.7066 9.86996 19.0349 9.91525 19.3608C10.8381 26.533 17.9682 26.3279 17.9682 26.3279H62.0568C62.0568 26.3279 69.2609 26.5175 70.1877 19.3608C70.2345 19.048 70.2606 18.7325 70.2655 18.4164C71.0605 19.604 71.756 20.8546 72.345 22.1554L77.6643 18.6409C77.6993 18.6796 64.4828 1.61017 39.9346 1.61017M69.1402 19.2408C69.1402 19.2408 68.1744 24.7564 61.9712 24.7564H17.9682C11.8039 24.7564 10.916 19.206 10.916 19.206C10.6863 17.7313 10.955 16.7133 11.4184 16.0321C15.8887 10.2958 24.6582 2.5546 39.9346 2.5546C55.3123 2.5546 64.2141 10.3694 68.6456 16.1482C69.1479 16.7868 69.3388 17.8474 69.1479 19.2447" fill="#E1242A"/>
</g>
<defs>
<clipPath id="clip0_7_9">
<rect width="80.1379" height="28" fill="white"/>
</clipPath>
</defs>
</svg>
